<svg width="32" height="32" viewBox="0 0 32 32" fill="none" xmlns="http://www.w3.org/2000/svg">
  <rect width="32" height="32" rx="8" fill="#465FFF"/>
  <path d="M8 9.5C8 8.67157 8.67157 8 9.5 8H14C14.5 8 15.5 8.5 16 9C16.5 8.5 17.5 8 18 8H22.5C23.3284 8 24 8.67157 24 9.5V22.5C24 23.3284 23.3284 24 22.5 24H18.5C17.8 24 16.8 24.3 16 25C15.2 24.3 14.2 24 13.5 24H9.5C8.67157 24 8 23.3284 8 22.5V9.5Z" fill="white" fill-opacity="0.95"/>
  <path d="M16 10V24" stroke="#465FFF" stroke-width="1.2" stroke-linecap="round"/>
  <path d="M11 12H14" stroke="#465FFF" stroke-width="1" stroke-linecap="round"/>
  <path d="M11 14.5H14" stroke="#465FFF" stroke-width="1" stroke-linecap="round"/>
  <path d="M11 17H13" stroke="#465FFF" stroke-width="1" stroke-linecap="round"/>
  <path d="M18 12H21" stroke="#465FFF" stroke-width="1" stroke-linecap="round"/>
  <path d="M18 14.5H21" stroke="#465FFF" stroke-width="1" stroke-linecap="round"/>
  <path d="M18 17H20" stroke="#465FFF" stroke-width="1" stroke-linecap="round"/>
</svg>
